<svg fill="none" height="152" viewBox="0 0 340 152" width="340" xmlns="http://www.w3.org/2000/svg"><foreignObject height="210.922" width="398.922" x="-29.461" y="-29.461"/><rect fill="#f3f0e9" height="152" rx="12" width="340"/><rect fill="#1a1613" height="36" rx="8" width="36" x="16" y="16"/><path d="m33.5522 31.1076c1.9725 2.6115 3.1429 5.864 3.1429 9.3919 0 .8509-.0688 1.6857-.2005 2.5005h5.7109c.4967 0 .899-.4037.899-.9017v-15.7886c0-.5882-.5541-1.0233-1.1216-.8736-3.4102.9004-6.3619 2.9323-8.4307 5.6715z" fill="#99d538"/><path d="m30.6099 43c-.131-.8141-.2005-1.649-.2005-2.5005 0-3.5272 1.1711-6.7804 3.1429-9.3919-2.0687-2.7392-5.0205-4.7711-8.4307-5.6708-.5675-.1497-1.1216.2847-1.1216.8729v15.7893c0 .4973.4031.901.8997.901z" fill="#239de0"/><path d="m33.5525 31.1076c-1.9724 2.6115-3.1428 5.864-3.1428 9.3919 0 .8509.0688 1.6857.2005 2.5005h5.8847c.1317-.8148.2005-1.6496.2005-2.5005 0-3.5279-1.1704-6.7804-3.1429-9.3919z" fill="#1563a9"/><path d="m65.05 39v-9.8h1.372l3.458 6.846 3.472-6.846h1.386v9.8h-1.176v-7.7l-3.234 6.328h-.882l-3.22-6.3v7.672zm14.7955.168c-.6627 0-1.2507-.154-1.764-.462-.504-.308-.9007-.7373-1.19-1.288-.2893-.56-.434-1.2087-.434-1.946 0-.7467.14-1.3953.42-1.946.2893-.5507.6907-.98 1.204-1.288.5227-.308 1.12-.462 1.792-.462.6907 0 1.274.154 1.75.462.4853.308.854.714 1.106 1.218.2613.4947.392 1.0407.392 1.638v.294c0 .1027-.0047.2193-.014.35h-5.768v-.91h4.634c-.028-.644-.2427-1.148-.644-1.512-.392-.364-.8867-.546-1.484-.546-.4013 0-.7747.0933-1.12.28-.336.1773-.6067.4433-.812.798-.2053.3453-.308.7793-.308 1.302v.392c0 .5787.1027 1.064.308 1.456.2147.392.49.686.826.882.3453.196.714.294 1.106.294.4947 0 .9007-.1073 1.218-.322.3267-.224.56-.5227.7-.896h1.162c-.112.42-.308.798-.588 1.134s-.63.602-1.05.798c-.4107.1867-.8913.28-1.442.28zm7.4026-.168c-.42 0-.784-.0653-1.092-.196s-.546-.35-.714-.658c-.1587-.3173-.238-.742-.238-1.274v-3.934h-1.232v-.994h1.232l.154-1.708h1.022v1.708h2.044v.994h-2.044v3.934c0 .4387.0887.7373.266.896.1773.1493.49.224.938.224h.756v1.008zm2.7104 0v-10.08h1.176v10.08zm3.2292 0v-7.056h1.176v7.056zm.588-8.554c-.2333 0-.4293-.0747-.588-.224-.1493-.1587-.224-.3547-.224-.588s.0747-.42.224-.56c.1587-.1493.3547-.224.588-.224.224 0 .4153.0747.574.224.1587.14.238.3267.238.56s-.0793.4293-.238.588c-.1587.1493-.35.224-.574.224zm3.0553 8.554v-8.148c0-.448.0747-.812.224-1.092.1493-.2893.3687-.4993.658-.63.2987-.14.6627-.21 1.092-.21h.798v1.008h-.616c-.3453 0-.5973.07-.756.21-.1493.14-.224.3873-.224.742v8.12zm-1.078-6.062v-.994h4.032v.994zm8.264 6.23c-.662 0-1.25-.154-1.764-.462-.504-.308-.9-.7373-1.19-1.288-.289-.56-.434-1.2087-.434-1.946 0-.7467.14-1.3953.42-1.946.29-.5507.691-.98 1.204-1.288.523-.308 1.12-.462 1.792-.462.691 0 1.274.154 1.75.462.486.308.854.714 1.106 1.218.262.4947.392 1.0407.392 1.638v.294c0 .1027-.004.2193-.014.35h-5.768v-.91h4.634c-.028-.644-.242-1.148-.644-1.512-.392-.364-.886-.546-1.484-.546-.401 0-.774.0933-1.12.28-.336.1773-.606.4433-.812.798-.205.3453-.308.7793-.308 1.302v.392c0 .5787.103 1.064.308 1.456.215.392.49.686.826.882.346.196.714.294 1.106.294.495 0 .901-.1073 1.218-.322.327-.224.56-.5227.7-.896h1.162c-.112.42-.308.798-.588 1.134s-.63.602-1.05.798c-.41.1867-.891.28-1.442.28z" fill="#1a1613"/><path d="m251.682 40.218v-1.078c-.924-.112-1.661-.4433-2.212-.994-.541-.56-.817-1.2693-.826-2.128h1.232c.009.4947.163.9333.462 1.316.308.3733.756.6113 1.344.714v-3.71c-.98-.2613-1.68-.6207-2.1-1.078-.411-.4667-.616-1.036-.616-1.708 0-.6533.233-1.2087.7-1.666.476-.4667 1.148-.742 2.016-.826v-1.134h.98v1.12c.849.084 1.521.3733 2.016.868.504.4853.761 1.092.77 1.82h-1.218c-.009-.336-.145-.6627-.406-.98-.252-.3173-.639-.5227-1.162-.616v3.318c.047.0187.093.0327.14.042.905.2333 1.605.5693 2.1 1.008.504.4293.756 1.0407.756 1.834 0 .5133-.126.9753-.378 1.386-.243.4013-.588.728-1.036.98s-.975.4013-1.582.448v1.064zm-1.498-8.68c0 .3547.107.658.322.91.224.252.616.4853 1.176.7v-3.024c-.439.0653-.798.224-1.078.476-.28.2427-.42.5553-.42.938zm4.256 4.886c0-.4573-.135-.8213-.406-1.092-.261-.2707-.719-.5133-1.372-.728v3.486c.579-.0653 1.017-.252 1.316-.56.308-.3173.462-.686.462-1.106zm2.935 2.576v-1.064h2.534v-7.35l-2.394.462v-.896l2.786-.952h.784v8.736h2.674v1.064zm9.71 1.708 1.232-3.766h1.554l-1.666 3.766zm10.131-1.54c-.598 0-1.13-.1167-1.596-.35-.458-.2427-.826-.5647-1.106-.966-.271-.4107-.43-.868-.476-1.372h1.134c.084.4947.303.8913.658 1.19.364.2893.826.434 1.386.434.737 0 1.339-.3313 1.806-.994.466-.672.732-1.7173.798-3.136h-.084c-.252.4387-.574.798-.966 1.078s-.943.42-1.652.42c-.588 0-1.116-.1353-1.582-.406-.467-.2707-.84-.644-1.12-1.12-.271-.476-.406-1.0173-.406-1.624 0-.5973.13-1.1433.392-1.638.27-.504.648-.9053 1.134-1.204.494-.2987 1.068-.448 1.722-.448 1.232 0 2.151.42 2.758 1.26.606.84.91 1.9833.91 3.43 0 1.0733-.145 2.0207-.434 2.842-.29.812-.71 1.4513-1.26 1.918-.551.4573-1.223.686-2.016.686zm.126-4.76c.653 0 1.176-.2053 1.568-.616s.588-.924.588-1.54-.196-1.1293-.588-1.54-.915-.616-1.568-.616c-.654 0-1.176.2053-1.568.616-.383.4107-.574.924-.574 1.54 0 .6253.191 1.1433.574 1.554.392.4013.914.602 1.568.602zm9.64 4.592v-2.268h-4.69v-.91l4.466-6.622h1.4v6.468h1.4v1.064h-1.4v2.268zm-3.374-3.332h3.43v-5.096zm10.691 3.5c-.644 0-1.223-.1167-1.736-.35-.504-.2427-.91-.5927-1.218-1.05s-.476-1.0173-.504-1.68h1.204c.018.56.224 1.036.616 1.428.392.3827.938.574 1.638.574.681 0 1.208-.1727 1.582-.518.373-.3547.56-.8353.56-1.442 0-.42-.108-.7653-.322-1.036-.215-.28-.504-.4853-.868-.616-.355-.14-.752-.21-1.19-.21h-.854v-1.064h.742c.634 0 1.138-.1353 1.512-.406.382-.2707.574-.6673.574-1.19 0-.4387-.154-.798-.462-1.078-.299-.28-.728-.42-1.288-.42-.542 0-.98.154-1.316.462-.336.2987-.528.6907-.574 1.176h-1.176c.018-.532.158-.9987.42-1.4.261-.4107.616-.7327 1.064-.966.457-.2333.984-.35 1.582-.35.644 0 1.18.112 1.61.336.438.224.77.5273.994.91.224.3733.336.7887.336 1.246 0 .4853-.15.9147-.448 1.288-.299.364-.654.6207-1.064.77v.084c.55.168 1.008.4527 1.372.854s.546.938.546 1.61c0 .5693-.136 1.0827-.406 1.54-.262.4573-.644.8213-1.148 1.092-.495.2707-1.088.406-1.778.406zm8.268-.14c-.289 0-.536-.098-.742-.294-.205-.196-.308-.4387-.308-.728 0-.28.103-.518.308-.714.206-.196.453-.294.742-.294.29 0 .537.098.742.294.206.196.308.434.308.714 0 .2893-.102.532-.308.728-.205.196-.452.294-.742.294zm8.395.14c-.654 0-1.228-.1213-1.722-.364-.486-.252-.868-.5927-1.148-1.022s-.42-.9193-.42-1.47c0-.616.163-1.1387.49-1.568.326-.4293.704-.728 1.134-.896v-.07c-.411-.196-.742-.476-.994-.84-.243-.3733-.364-.8073-.364-1.302 0-.476.121-.91.364-1.302.252-.4013.606-.7187 1.064-.952.457-.2333.989-.35 1.596-.35.597 0 1.12.1167 1.568.35.457.2333.812.5507 1.064.952.261.392.392.826.392 1.302 0 .4947-.126.9287-.378 1.302-.243.364-.57.644-.98.84v.07c.429.168.807.4667 1.134.896.326.4293.49.952.49 1.568 0 .5507-.14 1.0407-.42 1.47s-.668.77-1.162 1.022c-.486.2427-1.055.364-1.708.364zm0-5.824c.578 0 1.031-.1493 1.358-.448.336-.308.504-.7047.504-1.19 0-.476-.168-.8633-.504-1.162-.327-.308-.78-.462-1.358-.462-.579 0-1.036.154-1.372.462-.327.2987-.49.686-.49 1.162 0 .4853.163.882.49 1.19.336.2987.793.448 1.372.448zm0 4.76c.625 0 1.129-.1587 1.512-.476.392-.3267.588-.798.588-1.414 0-.6067-.196-1.0687-.588-1.386-.383-.3267-.887-.49-1.512-.49-.626 0-1.134.1633-1.526.49-.383.3173-.574.7793-.574 1.386 0 .616.191 1.0873.574 1.414.392.3173.9.476 1.526.476zm8.394 1.064c-.653 0-1.227-.1213-1.722-.364-.485-.252-.868-.5927-1.148-1.022s-.42-.9193-.42-1.47c0-.616.164-1.1387.49-1.568.327-.4293.705-.728 1.134-.896v-.07c-.41-.196-.742-.476-.994-.84-.242-.3733-.364-.8073-.364-1.302 0-.476.122-.91.364-1.302.252-.4013.607-.7187 1.064-.952.458-.2333.99-.35 1.596-.35.598 0 1.12.1167 1.568.35.458.2333.812.5507 1.064.952.262.392.392.826.392 1.302 0 .4947-.126.9287-.378 1.302-.242.364-.569.644-.98.84v.07c.43.168.808.4667 1.134.896.327.4293.49.952.49 1.568 0 .5507-.14 1.0407-.42 1.47s-.667.77-1.162 1.022c-.485.2427-1.054.364-1.708.364zm0-5.824c.579 0 1.032-.1493 1.358-.448.336-.308.504-.7047.504-1.19 0-.476-.168-.8633-.504-1.162-.326-.308-.779-.462-1.358-.462-.578 0-1.036.154-1.372.462-.326.2987-.49.686-.49 1.162 0 .4853.164.882.49 1.19.336.2987.794.448 1.372.448zm0 4.76c.626 0 1.13-.1587 1.512-.476.392-.3267.588-.798.588-1.414 0-.6067-.196-1.0687-.588-1.386-.382-.3267-.886-.49-1.512-.49-.625 0-1.134.1633-1.526.49-.382.3173-.574.7793-.574 1.386 0 .616.192 1.0873.574 1.414.392.3173.901.476 1.526.476z" fill="#4a8044"/><path clip-rule="evenodd" d="m28 74c-5.5228 0-10 4.4772-10 10s4.4772 10 10 10 10-4.4772 10-10-4.4772-10-10-10zm3.5805 7.9749c.2623-.3206.215-.7931-.1056-1.0554s-.7931-.215-1.0554.1056l-3.9752 4.8586-1.414-1.414c-.2929-.2929-.7677-.2929-1.0606 0s-.2929.7677 0 1.0606l2 2c.1498.1499.356.2293.5677.2188.2116-.0106.4089-.1102.5431-.2742z" fill="#4a8044" fill-rule="evenodd"/><path d="m53.05 89v-9.8h3.164c.7653 0 1.3907.1307 1.876.392.4853.252.8447.5927 1.078 1.022s.35.9147.35 1.456c0 .5227-.1213 1.0033-.364 1.442-.2333.4387-.5973.7887-1.092 1.05s-1.1293.392-1.904.392h-1.932v4.046zm5.18 0-2.156-4.382h1.316l2.226 4.382zm-4.004-4.97h1.904c.7467 0 1.2927-.182 1.638-.546.3547-.364.532-.8307.532-1.4 0-.5787-.1727-1.036-.518-1.372-.336-.3453-.8913-.518-1.666-.518h-1.89zm9.7367 5.138c-.6627 0-1.2507-.154-1.764-.462-.504-.308-.9007-.7373-1.19-1.288-.2894-.56-.434-1.2087-.434-1.946 0-.7467.14-1.3953.42-1.946.2893-.5507.6906-.98 1.204-1.288.5226-.308 1.12-.462 1.792-.462.6906 0 1.274.154 1.75.462.4853.308.854.714 1.106 1.218.2613.4947.392 1.0407.392 1.638v.294c0 .1027-.0047.2193-.014.35h-5.768v-.91h4.634c-.028-.644-.2427-1.148-.644-1.512-.392-.364-.8867-.546-1.484-.546-.4014 0-.7747.0933-1.12.28-.336.1773-.6067.4433-.812.798-.2054.3453-.308.7793-.308 1.302v.392c0 .5787.1026 1.064.308 1.456.2146.392.49.686.826.882.3453.196.714.294 1.106.294.4946 0 .9006-.1073 1.218-.322.3266-.224.56-.5227.7-.896h1.162c-.112.42-.308.798-.588 1.134s-.63.602-1.05.798c-.4107.1867-.8914.28-1.442.28zm8.041 0c-.6627 0-1.26-.154-1.792-.462-.5227-.308-.9333-.7373-1.232-1.288-.2987-.56-.448-1.204-.448-1.932 0-.7467.1493-1.3953.448-1.946s.7093-.98 1.232-1.288c.532-.3173 1.1293-.476 1.792-.476.84 0 1.54.2193 2.1.658.56.4293.9147 1.008 1.064 1.736h-1.204c-.0933-.4387-.322-.7793-.686-1.022s-.7933-.364-1.288-.364c-.4013 0-.7747.1027-1.12.308-.3453.196-.6207.4947-.826.896s-.308.896-.308 1.484c0 .4387.0607.8307.182 1.176.1213.336.2847.616.49.84s.4433.3967.714.518c.28.112.5693.168.868.168.336 0 .6393-.0513.91-.154.2707-.112.4993-.2753.686-.49s.3127-.4667.378-.756h1.204c-.1493.7093-.5087 1.288-1.078 1.736-.56.4387-1.2553.658-2.086.658zm7.9277 0c-.6626 0-1.2506-.154-1.764-.462-.504-.308-.9006-.7373-1.19-1.288-.2893-.56-.434-1.2087-.434-1.946 0-.7467.14-1.3953.42-1.946.2894-.5507.6907-.98 1.204-1.288.5227-.308 1.12-.462 1.792-.462.6907 0 1.274.154 1.75.462.4854.308.854.714 1.106 1.218.2614.4947.392 1.0407.392 1.638v.294c0 .1027-.0046.2193-.014.35h-5.768v-.91h4.634c-.028-.644-.2426-1.148-.644-1.512-.392-.364-.8866-.546-1.484-.546-.4013 0-.7746.0933-1.12.28-.336.1773-.6066.4433-.812.798-.2053.3453-.308.7793-.308 1.302v.392c0 .5787.1027 1.064.308 1.456.2147.392.49.686.826.882.3454.196.714.294 1.106.294.4947 0 .9007-.1073 1.218-.322.3267-.224.56-.5227.7-.896h1.162c-.112.42-.308.798-.588 1.134s-.63.602-1.05.798c-.4106.1867-.8913.28-1.442.28zm4.9751-.168v-7.056h1.176v7.056zm.588-8.554c-.2334 0-.4294-.0747-.588-.224-.1494-.1587-.224-.3547-.224-.588s.0746-.42.224-.56c.1586-.1493.3546-.224.588-.224.224 0 .4153.0747.574.224.1586.14.238.3267.238.56s-.0794.4293-.238.588c-.1587.1493-.35.224-.574.224zm4.6932 8.554-2.674-7.056h1.232l2.128 5.922 2.142-5.922h1.204l-2.674 7.056zm8.0914.168c-.6627 0-1.2507-.154-1.764-.462-.504-.308-.9007-.7373-1.19-1.288-.2894-.56-.434-1.2087-.434-1.946 0-.7467.14-1.3953.42-1.946.2893-.5507.6906-.98 1.204-1.288.5226-.308 1.12-.462 1.792-.462.6906 0 1.274.154 1.7499.462.485.308.854.714 1.106 1.218.261.4947.392 1.0407.392 1.638v.294c0 .1027-.005.2193-.014.35h-5.7679v-.91h4.6339c-.028-.644-.243-1.148-.6439-1.512-.392-.364-.8867-.546-1.484-.546-.4014 0-.7747.0933-1.12.28-.336.1773-.6067.4433-.812.798-.2054.3453-.308.7793-.308 1.302v.392c0 .5787.1026 1.064.308 1.456.2146.392.49.686.826.882.3453.196.714.294 1.106.294.4946 0 .9006-.1073 1.218-.322.3266-.224.5599-.5227.6999-.896h1.162c-.112.42-.308.798-.588 1.134s-.63.602-1.0499.798c-.4107.1867-.8914.28-1.442.28zm7.9709 0c-.681 0-1.279-.1587-1.792-.476-.513-.3267-.91-.77-1.19-1.33s-.42-1.1947-.42-1.904.14-1.3393.42-1.89c.28-.56.677-.9987 1.19-1.316.523-.3173 1.125-.476 1.806-.476.579 0 1.083.1167 1.512.35.439.2333.775.56 1.008.98v-4.186h1.176v10.08h-1.064l-.098-1.162c-.149.2333-.341.4527-.574.658-.233.196-.513.3593-.84.49-.327.1213-.705.182-1.134.182zm.14-1.022c.467 0 .877-.112 1.232-.336s.63-.532.826-.924c.196-.4013.294-.8727.294-1.414 0-.532-.098-.9987-.294-1.4s-.471-.714-.826-.938-.765-.336-1.232-.336c-.457 0-.863.112-1.218.336s-.63.5367-.826.938-.294.868-.294 1.4c0 .5413.098 1.0127.294 1.414.196.392.471.7.826.924s.761.336 1.218.336z" fill="#1a1613"/><path d="m126.234 89.168c-.588 0-1.097-.112-1.526-.336-.42-.224-.747-.546-.98-.966-.224-.42-.336-.9193-.336-1.498h1.19c0 .3267.051.6253.154.896.112.2613.285.4713.518.63.243.1493.565.224.966.224.392 0 .7-.0747.924-.224.233-.1493.397-.35.49-.602.103-.2613.154-.5553.154-.882v-7.21h1.176v7.21c0 .8773-.243 1.5587-.728 2.044-.476.476-1.143.714-2.002.714zm7.056 0c-.57 0-1.046-.098-1.428-.294-.383-.2053-.668-.4713-.854-.798-.187-.336-.28-.7-.28-1.092 0-.476.121-.8773.364-1.204.252-.336.602-.588 1.05-.756.457-.1773.994-.266 1.61-.266h1.862c0-.4387-.07-.8027-.21-1.092-.131-.2987-.327-.5227-.588-.672-.252-.1493-.57-.224-.952-.224-.448 0-.836.112-1.162.336-.327.224-.528.5553-.602.994h-1.204c.056-.504.224-.924.504-1.26.289-.3453.653-.6067 1.092-.784.438-.1867.896-.28 1.372-.28.653 0 1.194.1213 1.624.364.438.2333.765.5647.98.994.214.42.322.9193.322 1.498v4.368h-1.05l-.07-1.246c-.094.196-.215.3827-.364.56-.14.168-.308.3173-.504.448-.196.1213-.42.2193-.672.294-.243.0747-.523.112-.84.112zm.182-.994c.326 0 .62-.0653.882-.196.27-.14.499-.3267.686-.56.186-.2427.326-.5087.42-.798.102-.2893.154-.5927.154-.91v-.042h-1.764c-.458 0-.826.056-1.106.168-.28.1027-.481.252-.602.448-.122.1867-.182.4013-.182.644 0 .252.056.4713.168.658.121.1867.294.3313.518.434.233.1027.508.154.826.154zm5.137.826v-7.056h1.064l.056 1.232c.224-.4387.541-.7793.952-1.022.42-.252.896-.378 1.428-.378.551 0 1.027.112 1.428.336.401.2147.714.546.938.994.224.4387.336.9987.336 1.68v4.214h-1.176v-4.088c0-.7093-.159-1.2413-.476-1.596-.308-.3547-.747-.532-1.316-.532-.392 0-.742.098-1.05.294-.308.1867-.555.462-.742.826-.177.3547-.266.798-.266 1.33v3.766zm12.906 0v-8.484l-1.68.42v-.84l2.072-.896h.798v9.8zm7.721 0v-2.1h-4.97v-.91l4.76-6.79h1.372v6.664h1.456v1.036h-1.456v2.1zm-3.668-3.136h3.724v-5.362zm6.74 4.858.812-3.094h1.218l-1.218 3.094zm7.102-1.722v-.826c.662-.5227 1.292-1.05 1.89-1.582.606-.532 1.143-1.0593 1.61-1.582.466-.532.83-1.05 1.092-1.554.27-.504.406-.9893.406-1.456 0-.3453-.061-.6627-.182-.952-.122-.2987-.318-.5413-.588-.728-.262-.1867-.616-.28-1.064-.28-.439 0-.803.098-1.092.294-.29.1867-.509.4387-.658.756-.14.308-.21.6487-.21 1.022h-1.134c.009-.644.144-1.1947.406-1.652.27-.4667.639-.8213 1.106-1.064.466-.2427.998-.364 1.596-.364.588 0 1.106.112 1.554.336.448.2147.798.5367 1.05.966.261.4293.392.9707.392 1.624 0 .4573-.098.9147-.294 1.372-.187.4573-.439.9053-.756 1.344-.318.4293-.672.8447-1.064 1.246-.383.4013-.78.7793-1.19 1.134-.402.3547-.78.6767-1.134.966h4.774v.98zm11.272.168c-.625 0-1.195-.112-1.708-.336-.504-.2333-.905-.5787-1.204-1.036s-.457-1.0267-.476-1.708h1.19c.009.3733.098.7187.266 1.036.177.308.429.5553.756.742s.719.28 1.176.28.84-.0887 1.148-.266.541-.4107.7-.7c.159-.2987.238-.63.238-.994 0-.4573-.112-.826-.336-1.106-.215-.2893-.509-.4993-.882-.63-.364-.14-.765-.21-1.204-.21h-.728v-.994h.728c.644 0 1.148-.1493 1.512-.448s.546-.7093.546-1.232c0-.4293-.145-.7887-.434-1.078-.28-.2893-.709-.434-1.288-.434-.551 0-.989.1587-1.316.476s-.513.7233-.56 1.218h-1.19c.028-.532.173-1.0033.434-1.414s.616-.728 1.064-.952c.448-.2333.975-.35 1.582-.35.635 0 1.167.112 1.596.336s.751.5227.966.896c.224.3733.336.784.336 1.232 0 .336-.061.6533-.182.952-.121.2893-.303.546-.546.77s-.551.3827-.924.476c.383.0747.723.2193 1.022.434.308.2147.551.4947.728.84s.266.7513.266 1.218c0 .532-.126 1.0267-.378 1.484-.243.448-.607.812-1.092 1.092-.485.2707-1.087.406-1.806.406zm5.57-.098c-.234 0-.43-.0747-.588-.224-.15-.1587-.224-.35-.224-.574s.074-.4107.224-.56c.158-.1587.354-.238.588-.238.233 0 .424.0793.574.238.149.1493.224.336.224.56s-.075.4153-.224.574c-.15.1493-.341.224-.574.224zm0-5.698c-.234 0-.43-.0747-.588-.224-.15-.1587-.224-.35-.224-.574s.074-.4107.224-.56c.158-.1587.354-.238.588-.238.233 0 .424.0793.574.238.149.1493.224.336.224.56s-.075.4153-.224.574c-.15.1493-.341.224-.574.224zm2.326 5.628v-.826c.662-.5227 1.292-1.05 1.89-1.582.606-.532 1.143-1.0593 1.61-1.582.466-.532.83-1.05 1.092-1.554.27-.504.406-.9893.406-1.456 0-.3453-.061-.6627-.182-.952-.122-.2987-.318-.5413-.588-.728-.262-.1867-.616-.28-1.064-.28-.439 0-.803.098-1.092.294-.29.1867-.509.4387-.658.756-.14.308-.21.6487-.21 1.022h-1.134c.009-.644.144-1.1947.406-1.652.27-.4667.639-.8213 1.106-1.064.466-.2427.998-.364 1.596-.364.588 0 1.106.112 1.554.336.448.2147.798.5367 1.05.966.261.4293.392.9707.392 1.624 0 .4573-.098.9147-.294 1.372-.187.4573-.439.9053-.756 1.344-.318.4293-.672.8447-1.064 1.246-.383.4013-.78.7793-1.19 1.134-.402.3547-.78.6767-1.134.966h4.774v.98zm8.066 0v-.826c.663-.5227 1.293-1.05 1.89-1.582.607-.532 1.143-1.0593 1.61-1.582.467-.532.831-1.05 1.092-1.554.271-.504.406-.9893.406-1.456 0-.3453-.061-.6627-.182-.952-.121-.2987-.317-.5413-.588-.728-.261-.1867-.616-.28-1.064-.28-.439 0-.803.098-1.092.294-.289.1867-.509.4387-.658.756-.14.308-.21.6487-.21 1.022h-1.134c.009-.644.145-1.1947.406-1.652.271-.4667.639-.8213 1.106-1.064s.999-.364 1.596-.364c.588 0 1.106.112 1.554.336.448.2147.798.5367 1.05.966.261.4293.392.9707.392 1.624 0 .4573-.098.9147-.294 1.372-.187.4573-.439.9053-.756 1.344-.317.4293-.672.8447-1.064 1.246-.383.4013-.779.7793-1.19 1.134-.401.3547-.779.6767-1.134.966h4.774v.98z" fill="#666" fill-opacity=".6"/><path clip-rule="evenodd" d="m28 114c-5.5228 0-10 4.477-10 10s4.4772 10 10 10 10-4.477 10-10-4.4772-10-10-10zm3.5805 7.975c.2623-.321.215-.793-.1056-1.055-.3206-.263-.7931-.216-1.0554.105l-3.9752 4.859-1.414-1.414c-.2929-.293-.7677-.293-1.0606 0s-.2929.767 0 1.06l2 2c.1498.15.356.23.5677.219.2116-.01.4089-.11.5431-.274z" fill="#4a8044" fill-rule="evenodd"/><path d="m53.05 129v-9.8h3.192c.7747 0 1.4093.131 1.904.392.504.252.8727.593 1.106 1.022.2427.429.364.919.364 1.47 0 .532-.1213 1.017-.364 1.456-.2333.429-.5973.775-1.092 1.036s-1.134.392-1.918.392h-2.016v4.032zm1.176-5.026h2.002c.784 0 1.344-.173 1.68-.518s.504-.803.504-1.372c0-.607-.168-1.073-.504-1.4-.336-.336-.896-.504-1.68-.504h-2.002zm9.6149 5.194c-.6533 0-1.2413-.149-1.764-.448-.5226-.308-.9333-.737-1.232-1.288-.2986-.56-.448-1.209-.448-1.946 0-.756.1494-1.409.448-1.96.308-.56.7234-.989 1.246-1.288.532-.308 1.1247-.462 1.778-.462.672 0 1.2647.154 1.778.462.5227.299.9334.728 1.232 1.288.308.551.462 1.199.462 1.946s-.154 1.4-.462 1.96c-.308.551-.7233.98-1.246 1.288-.5226.299-1.12.448-1.792.448zm.014-1.008c.4014 0 .7747-.098 1.12-.294.3454-.205.6254-.509.84-.91.2147-.401.322-.896.322-1.484 0-.597-.1073-1.092-.322-1.484-.2053-.401-.4806-.7-.826-.896-.336-.205-.7093-.308-1.12-.308-.392 0-.7653.103-1.12.308-.3453.196-.6253.495-.84.896-.2053.392-.308.887-.308 1.484 0 .588.1027 1.083.308 1.484.2147.401.49.705.826.91.3454.196.7187.294 1.12.294zm7.7949 1.008c-.588 0-1.1014-.098-1.54-.294-.4294-.196-.7747-.467-1.036-.812-.252-.355-.406-.77-.462-1.246h1.204c.0466.243.1446.467.294.672.1493.205.35.373.602.504.2613.121.5786.182.952.182.3266 0 .5973-.047.812-.14.2146-.103.3733-.238.476-.406.112-.168.168-.35.168-.546 0-.289-.07-.509-.21-.658-.1307-.149-.3267-.266-.588-.35-.2614-.093-.5787-.173-.952-.238-.308-.056-.6114-.131-.91-.224-.2987-.093-.5647-.215-.798-.364-.2334-.159-.42-.35-.56-.574-.1307-.224-.196-.499-.196-.826 0-.401.1026-.756.308-1.064.2053-.317.4993-.565.882-.742.392-.177.8446-.266 1.358-.266.756 0 1.3673.182 1.834.546.4666.364.742.891.826 1.582h-1.162c-.0467-.355-.2007-.63-.462-.826-.252-.205-.602-.308-1.05-.308-.4387 0-.7747.089-1.008.266-.224.177-.336.411-.336.7 0 .187.0606.355.182.504.1306.14.3173.261.56.364.252.103.56.187.924.252.4666.084.8913.196 1.274.336.3826.14.6906.35.924.63.2426.271.364.658.364 1.162 0 .439-.112.821-.336 1.148-.2147.327-.5227.583-.924.77-.4014.177-.8727.266-1.414.266zm6.8249-.168c-.42 0-.784-.065-1.092-.196s-.546-.35-.714-.658c-.1587-.317-.238-.742-.238-1.274v-3.934h-1.232v-.994h1.232l.154-1.708h1.022v1.708h2.044v.994h-2.044v3.934c0 .439.0886.737.266.896.1773.149.49.224.938.224h.756v1.008zm5.613.168c-.6627 0-1.2507-.154-1.764-.462-.504-.308-.9007-.737-1.19-1.288-.2894-.56-.434-1.209-.434-1.946 0-.747.14-1.395.42-1.946.2893-.551.6906-.98 1.204-1.288.5226-.308 1.12-.462 1.792-.462.6906 0 1.274.154 1.75.462.4853.308.854.714 1.106 1.218.2613.495.392 1.041.392 1.638v.294c0 .103-.0047.219-.014.35h-5.768v-.91h4.634c-.028-.644-.2427-1.148-.644-1.512-.392-.364-.8867-.546-1.484-.546-.4014 0-.7747.093-1.12.28-.336.177-.6067.443-.812.798-.2054.345-.308.779-.308 1.302v.392c0 .579.1026 1.064.308 1.456.2146.392.49.686.826.882.3453.196.714.294 1.106.294.4946 0 .9006-.107 1.218-.322.3266-.224.56-.523.7-.896h1.162c-.112.42-.308.798-.588 1.134s-.63.602-1.05.798c-.4107.187-.8914.28-1.442.28zm7.971 0c-.6813 0-1.2787-.159-1.792-.476-.5133-.327-.91-.77-1.19-1.33s-.42-1.195-.42-1.904.14-1.339.42-1.89c.28-.56.6767-.999 1.19-1.316.5227-.317 1.1247-.476 1.806-.476.5787 0 1.0827.117 1.512.35.4387.233.7747.56 1.008.98v-4.186h1.176v10.08h-1.064l-.098-1.162c-.1493.233-.3407.453-.574.658-.2333.196-.5133.359-.84.49-.3267.121-.7047.182-1.134.182zm.14-1.022c.4667 0 .8773-.112 1.232-.336s.63-.532.826-.924c.196-.401.294-.873.294-1.414 0-.532-.098-.999-.294-1.4s-.4713-.714-.826-.938-.7653-.336-1.232-.336c-.4573 0-.8633.112-1.218.336s-.63.537-.826.938-.294.868-.294 1.4c0 .541.098 1.013.294 1.414.196.392.4713.7.826.924s.7607.336 1.218.336z" fill="#1a1613"/><path d="m112.234 129.168c-.588 0-1.097-.112-1.526-.336-.42-.224-.747-.546-.98-.966-.224-.42-.336-.919-.336-1.498h1.19c0 .327.051.625.154.896.112.261.285.471.518.63.243.149.565.224.966.224.392 0 .7-.075.924-.224.233-.149.397-.35.49-.602.103-.261.154-.555.154-.882v-7.21h1.176v7.21c0 .877-.243 1.559-.728 2.044-.476.476-1.143.714-2.002.714zm7.056 0c-.57 0-1.046-.098-1.428-.294-.383-.205-.668-.471-.854-.798-.187-.336-.28-.7-.28-1.092 0-.476.121-.877.364-1.204.252-.336.602-.588 1.05-.756.457-.177.994-.266 1.61-.266h1.862c0-.439-.07-.803-.21-1.092-.131-.299-.327-.523-.588-.672-.252-.149-.57-.224-.952-.224-.448 0-.836.112-1.162.336-.327.224-.528.555-.602.994h-1.204c.056-.504.224-.924.504-1.26.289-.345.653-.607 1.092-.784.438-.187.896-.28 1.372-.28.653 0 1.194.121 1.624.364.438.233.765.565.98.994.214.42.322.919.322 1.498v4.368h-1.05l-.07-1.246c-.094.196-.215.383-.364.56-.14.168-.308.317-.504.448-.196.121-.42.219-.672.294-.243.075-.523.112-.84.112zm.182-.994c.326 0 .62-.065.882-.196.27-.14.499-.327.686-.56.186-.243.326-.509.42-.798.102-.289.154-.593.154-.91v-.042h-1.764c-.458 0-.826.056-1.106.168-.28.103-.481.252-.602.448-.122.187-.182.401-.182.644 0 .252.056.471.168.658.121.187.294.331.518.434.233.103.508.154.826.154zm5.137.826v-7.056h1.064l.056 1.232c.224-.439.541-.779.952-1.022.42-.252.896-.378 1.428-.378.551 0 1.027.112 1.428.336.401.215.714.546.938.994.224.439.336.999.336 1.68v4.214h-1.176v-4.088c0-.709-.159-1.241-.476-1.596-.308-.355-.747-.532-1.316-.532-.392 0-.742.098-1.05.294-.308.187-.555.462-.742.826-.177.355-.266.798-.266 1.33v3.766zm12.906 0v-8.484l-1.68.42v-.84l2.072-.896h.798v9.8zm6.797.168c-.709 0-1.307-.131-1.792-.392-.485-.271-.873-.625-1.162-1.064-.289-.448-.504-.952-.644-1.512-.131-.56-.196-1.129-.196-1.708 0-1.083.149-2.03.448-2.842.299-.821.728-1.461 1.288-1.918.569-.467 1.251-.7 2.044-.7.616 0 1.143.121 1.582.364.448.233.803.551 1.064.952s.42.849.476 1.344h-1.092c-.093-.523-.322-.924-.686-1.204-.355-.289-.807-.434-1.358-.434-.485 0-.924.154-1.316.462-.392.299-.705.761-.938 1.386-.224.616-.355 1.405-.392 2.366v.042.056c.149-.289.355-.56.616-.812.271-.252.593-.453.966-.602s.789-.224 1.246-.224c.551 0 1.069.131 1.554.392s.877.63 1.176 1.106c.308.467.462 1.017.462 1.652 0 .551-.135 1.078-.406 1.582-.261.504-.644.915-1.148 1.232s-1.101.476-1.792.476zm-.084-1.036c.429 0 .812-.093 1.148-.28.345-.196.611-.457.798-.784.196-.336.294-.714.294-1.134 0-.439-.098-.821-.294-1.148-.187-.327-.453-.579-.798-.756-.336-.187-.719-.28-1.148-.28s-.817.098-1.162.294-.621.462-.826.798c-.196.327-.294.695-.294 1.106 0 .42.098.798.294 1.134.205.327.481.583.826.77s.733.28 1.162.28zm4.367 2.59.812-3.094h1.218l-1.218 3.094zm8.334-1.722v-8.484l-1.68.42v-.84l2.072-.896h.798v9.8zm7.035.168c-.859 0-1.601-.21-2.226-.63-.616-.429-1.087-1.022-1.414-1.778-.327-.765-.49-1.652-.49-2.66s.163-1.89.49-2.646c.327-.765.798-1.358 1.414-1.778.625-.429 1.367-.644 2.226-.644s1.591.215 2.198.644c.616.42 1.087 1.013 1.414 1.778.327.756.49 1.638.49 2.646s-.163 1.895-.49 2.66c-.327.756-.798 1.349-1.414 1.778-.607.42-1.339.63-2.198.63zm-.014-1.036c.56 0 1.059-.159 1.498-.476.439-.327.784-.789 1.036-1.386.252-.607.378-1.33.378-2.17s-.126-1.559-.378-2.156c-.252-.607-.597-1.069-1.036-1.386s-.938-.476-1.498-.476-1.064.159-1.512.476c-.439.317-.784.779-1.036 1.386-.243.597-.364 1.316-.364 2.156s.121 1.563.364 2.17c.252.597.597 1.059 1.036 1.386.448.317.952.476 1.512.476zm6.182.938c-.233 0-.429-.075-.588-.224-.149-.159-.224-.35-.224-.574s.075-.411.224-.56c.159-.159.355-.238.588-.238.234 0 .425.079.574.238.15.149.224.336.224.56s-.074.415-.224.574c-.149.149-.34.224-.574.224zm0-5.698c-.233 0-.429-.075-.588-.224-.149-.159-.224-.35-.224-.574s.075-.411.224-.56c.159-.159.355-.238.588-.238.234 0 .425.079.574.238.15.149.224.336.224.56s-.074.415-.224.574c-.149.149-.34.224-.574.224zm6.233 5.796c-.859 0-1.601-.21-2.226-.63-.616-.429-1.088-1.022-1.414-1.778-.327-.765-.49-1.652-.49-2.66s.163-1.89.49-2.646c.326-.765.798-1.358 1.414-1.778.625-.429 1.367-.644 2.226-.644.858 0 1.591.215 2.197.644.617.42 1.088 1.013 1.415 1.778.326.756.49 1.638.49 2.646s-.164 1.895-.49 2.66c-.327.756-.798 1.349-1.415 1.778-.606.42-1.339.63-2.197.63zm-.014-1.036c.56 0 1.059-.159 1.498-.476.438-.327.784-.789 1.036-1.386.252-.607.378-1.33.378-2.17s-.126-1.559-.378-2.156c-.252-.607-.598-1.069-1.036-1.386-.439-.317-.938-.476-1.498-.476s-1.064.159-1.512.476c-.439.317-.784.779-1.036 1.386-.243.597-.364 1.316-.364 2.156s.121 1.563.364 2.17c.252.597.597 1.059 1.036 1.386.448.317.952.476 1.512.476zm6.91.868v-8.484l-1.68.42v-.84l2.072-.896h.798v9.8z" fill="#666" fill-opacity=".6"/><path d="m28 98v12" stroke="#4a8044"/></svg>